<svg xmlns="http://www.w3.org/2000/svg" viewBox="0 0 432 432"><defs><style>.cls-1{fill:#fff;}.cls-2{fill:#fcb116;}.cls-3{fill:#741f13;}</style></defs><title>Artboard 1</title><g id="Layer_1" data-name="Layer 1"><path class="cls-1" d="M216.38,426.89c-116.77,0-211.78-95-211.78-211.78S99.61,3.33,216.38,3.33s211.78,95,211.78,211.78S333.16,426.89,216.38,426.89Z"/><path class="cls-2" d="M216.38,426.89c-116.77,0-211.78-95-211.78-211.78S99.61,3.33,216.38,3.33s211.78,95,211.78,211.78S333.16,426.89,216.38,426.89Zm0-417.74c-113.57,0-206,92.4-206,206s92.4,206,206,206,206-92.4,206-206S330,9.14,216.38,9.14Z"/><path class="cls-2" d="M216.38,339.77A124.66,124.66,0,1,1,341,215.11,124.8,124.8,0,0,1,216.38,339.77Zm0-243.51A118.85,118.85,0,1,0,335.24,215.11,119,119,0,0,0,216.38,96.26Z"/><path class="cls-3" d="M216.38,17C107,17,18.31,105.72,18.31,215.11S107,413.18,216.38,413.18,414.46,324.5,414.46,215.11,325.78,17,216.38,17Zm0,330.4A132.33,132.33,0,1,1,348.71,215.11,132.33,132.33,0,0,1,216.38,347.44Z"/><path class="cls-1" d="M207.51,247c-23.11-21.59-48.18-64.18-51.68-70.21a56.83,56.83,0,0,1,.35-6c.1-1.13.2-2.27.27-3.32l.85-10.92-1.87.4a29.79,29.79,0,0,0-8.19,3.14,43.54,43.54,0,0,0-9.91,9.42C51.77,180.07,14.41,193.63,12.86,194.21l1,2.72a22.53,22.53,0,0,1-2.18,1.24l39,84C79,249,108.88,247,117.38,246.65c8.87,8.56,25.09,12.74,32.17,14.22,4.59,4.49,13,9.45,16.5,11.4a59.06,59.06,0,0,1,7,5.19,12.36,12.36,0,0,0,9.17,9.43,22.4,22.4,0,0,0,7.29,1.06,46.91,46.91,0,0,0,10.12-1.25l.87-.29c3.62-1.46,6.8-5.6,8.85-8.85l.91-1.55.17-1.7a59.82,59.82,0,0,1,1.56-6.07c3-8.54-.94-16.85-3.81-20.5Z"/><path class="cls-1" d="M294.55,169.49a43.51,43.51,0,0,0-9.91-9.42,29.74,29.74,0,0,0-8.19-3.14l-1.87-.4.85,10.91c.08,1.05.18,2.2.28,3.33a57.4,57.4,0,0,1,.36,6c-3.5,6-28.57,48.62-51.76,70.29l-.67.74c-2.8,3.57-6.74,11.88-3.76,20.35a62,62,0,0,1,1.59,6.14l.17,1.7.93,1.6c2,3.21,5.21,7.34,8.93,8.84l.86.27a46.94,46.94,0,0,0,10,1.23,22.37,22.37,0,0,0,7.29-1.06,12.36,12.36,0,0,0,9.16-9.43,59.13,59.13,0,0,1,7-5.19c3.47-2,11.91-6.91,16.5-11.4,7.08-1.48,23.3-5.65,32.18-14.22,8.5.37,38.56,2,66.69,31.73l39.91-80.92C414.13,195.6,380.17,180.08,294.55,169.49Z"/><path d="M249.91,220.42c-34.46-15.46-67.88-.16-68.22,0l-.32-.88c.34-.15,34.07-15.61,68.85,0Z"/><path d="M181.3,221.4l-.83-2.25.61-.28a93.23,93.23,0,0,1,35.77-7,81.65,81.65,0,0,1,33.67,7l.61.27-.79,2.25-.71-.32a79.54,79.54,0,0,0-32.8-6.85A90.17,90.17,0,0,0,182,221.07Z"/><path d="M178.51,214.42s36.53-15.71,74.88.34l17.21-26.31-13.29,15.71,3-13-10.26,12.64,11.17-33.48-17.81,30.06,5.74-20.15-8.46,14.35V171.37L230.44,194.6l-.3-16.06-6.34,22.19-6.47-30.38-6.56,31.17-4.18-23L206,198l-10-28.36,1.21,32.46-10-21.52L190,204.51l-17.21-31.09,7.85,29.38L167,182.31l5.74,20.15L160.7,187.77Z"/><path d="M189.51,288a22.4,22.4,0,0,1-7.29-1.06,12.36,12.36,0,0,1-9.17-9.43,59.06,59.06,0,0,0-7-5.19c-3.47-2-11.9-6.91-16.5-11.4-7.08-1.48-23.3-5.65-32.17-14.22-8.5.37-40.09,8.91-66.68,35.54l-1.53-3.3c28-28,60.7-34.92,68.73-35.16l.62,0,.44.44c8.62,8.72,26.35,12.89,31.59,14l.42.09.31.31c4.38,4.43,13.49,9.71,16.18,11.23a62.72,62.72,0,0,1,7.81,5.81l.38.32.1.49a9.56,9.56,0,0,0,7.16,7.72l.16,0a19.54,19.54,0,0,0,6.44.93,44,44,0,0,0,9.34-1.14l.69-.22c2.14-.87,4.87-3.67,7.38-7.64l.56-1,.11-1.07a57.79,57.79,0,0,1,1.69-6.69c2.6-7.4-.83-14.61-3.26-17.71l-.53-.57c-23.71-22.15-49.43-66.12-52.28-71.06l-.14-.24,0-.28a41.32,41.32,0,0,1,.31-7c.1-1.12.2-2.24.27-3.28l.54-7a23.63,23.63,0,0,0-5.4,2.28c-2.1,1.3-7.38,5.84-9.36,9.07l-.36.59-.68.08c-85.71,10.56-123,24.07-124.5,24.64l-1-2.72c1.55-.57,38.91-14.13,124.47-24.72a43.54,43.54,0,0,1,9.91-9.42,29.79,29.79,0,0,1,8.19-3.14l1.87-.4-.85,10.92c-.07,1-.17,2.19-.27,3.32a56.83,56.83,0,0,0-.35,6c3.5,6,28.57,48.62,51.68,70.21l.68.74c2.87,3.65,6.81,12,3.81,20.5a59.82,59.82,0,0,0-1.56,6.07l-.17,1.7-.91,1.55c-2.05,3.25-5.23,7.38-8.85,8.85l-.87.29A46.91,46.91,0,0,1,189.51,288Z"/><path d="M242.38,288a46.94,46.94,0,0,1-10-1.23l-.86-.27c-3.72-1.5-6.9-5.63-8.93-8.84l-.93-1.6-.17-1.7a62,62,0,0,0-1.59-6.14c-3-8.47,1-16.78,3.76-20.35l.67-.74c23.19-21.67,48.26-64.26,51.76-70.29a57.4,57.4,0,0,0-.36-6c-.1-1.13-.2-2.27-.28-3.33l-.85-10.91,1.87.4a29.74,29.74,0,0,1,8.19,3.14,43.51,43.51,0,0,1,9.91,9.42c85.62,10.59,122.93,24.14,124.48,24.72l-1,2.72c-1.54-.57-38.73-14.08-124.5-24.64l-.68-.08-.36-.59c-2-3.22-7.26-7.77-9.36-9.07a23.6,23.6,0,0,0-5.4-2.28l.54,7c.08,1,.17,2.17.27,3.29a41.32,41.32,0,0,1,.31,7l0,.28-.14.24c-2.85,4.94-28.57,48.91-52.36,71.14l-.52.58c-2.36,3-5.79,10.22-3.21,17.56A60.32,60.32,0,0,1,224.3,274l.11,1.07.59,1c2.48,3.93,5.21,6.72,7.45,7.63l.67.21h0a44.17,44.17,0,0,0,9.25,1.12,19.5,19.5,0,0,0,6.44-.93l.17,0a9.56,9.56,0,0,0,7.16-7.72l.1-.49.38-.32a62.48,62.48,0,0,1,7.81-5.8c2.69-1.52,11.81-6.8,16.18-11.23l.31-.31.42-.09c5.23-1.07,23-5.24,31.59-14l.44-.44.62,0c8,.24,39.39,6.4,67.39,34.45l-1.18,2.2C353.61,253.74,323,247,314.51,246.65c-8.87,8.56-25.09,12.74-32.18,14.22-4.59,4.49-13,9.45-16.5,11.4a59.13,59.13,0,0,0-7,5.19,12.36,12.36,0,0,1-9.16,9.43A22.37,22.37,0,0,1,242.38,288Z"/><path d="M17.52,200.15s36.94-12.63,125.07-23.29c0,0,5.75-9.76,8.14-10.3,0,0-2.23,11.21-.48,13.91,0,0,27.62,48.42,53.33,72.45,0,0,5.11,6.51,2.55,13.55a64.26,64.26,0,0,0-1.92,7.77s-3.19,5.06-5.43,6c0,0-8.78,2.17-13.73.18,0,0-4.15-.36-4.31-6.14,0,0-6.06-5.42-10.22-7.77-1.6-.9-15.17-9-16.29-11.74,0,0-24.91-4.34-32.73-14.81,0,0-37-1.3-70.63,32.12Z"/><path d="M414.45,199.33s-36.5-11.82-124.64-22.48c0,0-5.74-9.76-8.14-10.3,0,0,2.24,11.21.48,13.91,0,0-27.62,48.42-53.33,72.45,0,0-5.11,6.51-2.55,13.55a64.11,64.11,0,0,1,1.91,7.77s3.2,5.06,5.43,6c0,0,8.79,2.17,13.73.18,0,0,4.15-.36,4.31-6.14,0,0,6.06-5.42,10.22-7.77,1.6-.9,15.16-9,16.28-11.74,0,0,24.91-4.34,32.73-14.81,0,0,35.29-2.35,68.44,30.25Z"/><path class="cls-3" d="M143.22,151.92l-11.61-6.06,2.33-2.54L138.5,146c1.33.79,2.74,1.68,3.84,2.37l0,0c-.85-1.1-1.74-2.37-2.66-3.71l-3-4.38,2.31-2.52,4.7,2.77c1.31.77,2.46,1.51,3.64,2.3l0,0c-.89-1.11-1.77-2.34-2.7-3.59l-3-4.35,2.21-2.41,6.84,11.26-2.36,2.57-4.83-2.79a38.72,38.72,0,0,1-3.34-2.14l0,0c.88,1.15,1.61,2.13,2.32,3.25l3.1,4.68Z"/><path class="cls-3" d="M156.65,138.42l-10.16-8.27,2.79-2,3.92,3.58c1.15,1,2.35,2.2,3.29,3.09l0,0c-.62-1.25-1.24-2.68-1.87-4.16l-2.05-4.89,2.77-2,4.05,3.65c1.13,1,2.11,2,3.11,3l0,0c-.66-1.26-1.27-2.65-1.92-4.06l-2.09-4.86,2.65-1.92,4.45,12.4-2.83,2-4.17-3.7c-1-.87-1.85-1.7-2.84-2.76l0,0c.63,1.3,1.15,2.41,1.62,3.64l2.1,5.2Z"/><path class="cls-3" d="M172.54,127.87l-8.28-10.15,3.14-1.42,3.12,4.3c.91,1.26,1.86,2.62,2.59,3.69l0,0c-.35-1.34-.67-2.87-1-4.46l-1-5.21,3.12-1.41,3.23,4.39c.9,1.22,1.67,2.36,2.44,3.55l0,0c-.39-1.37-.71-2.85-1.06-4.36l-1.06-5.19,3-1.35,1.85,13-3.18,1.44-3.34-4.47a38.88,38.88,0,0,1-2.22-3.28l0,0c.36,1.41.64,2.6.86,3.9l1,5.52Z"/><path class="cls-3" d="M186.06,120.61a1.9,1.9,0,1,1,2.29,1.08A1.75,1.75,0,0,1,186.06,120.61Z"/><path class="cls-3" d="M190.11,107.84a32.42,32.42,0,0,1,4.2-1.12c2.67-.53,4.5-.44,6,.18a5.37,5.37,0,0,1,3.29,4.21,6.16,6.16,0,0,1-1.3,5.49c-1.25,1.38-3.41,2.35-6.15,2.89a31.67,31.67,0,0,1-3.62.53Zm5.16,9.48a6.78,6.78,0,0,0,1.11-.16c2.88-.56,4.49-2.34,3.9-5.3-.52-2.58-2.48-3.6-5.22-3.06a7.75,7.75,0,0,0-1.41.4Z"/><path class="cls-3" d="M215.59,111.64l-5.23.29.17,3,5.84-.32.13,2.35-9,.5-.7-12.64,8.75-.49.13,2.34-5.55.31.15,2.63,5.23-.29Z"/><path class="cls-3" d="M220.05,104.38l8.66.61-.16,2.34-5.46-.38-.2,2.88,5.1.36-.16,2.32-5.1-.36-.35,5.08-3.21-.22Z"/><path class="cls-3" d="M236.45,106.21l-1,4.76,5.19,1.11,1-4.76,3.14.67-2.63,12.38L239,119.7l1.1-5.18-5.19-1.11-1.1,5.18-3.14-.67,2.63-12.38Z"/><path class="cls-3" d="M249.55,109.61a31.39,31.39,0,0,1,4.11,1.25,8,8,0,0,1,4,2.54,3.07,3.07,0,0,1,.32,3,3.43,3.43,0,0,1-3.44,2l0,.05a3.23,3.23,0,0,1,1,2.86,34.74,34.74,0,0,0-.18,3.76l-3.09-1.15a15.6,15.6,0,0,1,.12-3.1c.18-1.63-.25-2.24-1.49-2.72l-.89-.33-1.73,4.66-3-1.11Zm1.09,6.22,1.19.44c1.51.56,2.65.22,3-.82s-.22-1.95-1.61-2.46a7.32,7.32,0,0,0-1.4-.42Z"/><path class="cls-3" d="M259.6,125.61a1.9,1.9,0,1,1,.85,2.39A1.74,1.74,0,0,1,259.6,125.61Z"/><path class="cls-3" d="M279,131.7c-2.33,3.46-6.06,4-9.53,1.63s-4-6.09-2-9.1,6-4,9.46-1.64C280.59,125,280.95,128.79,279,131.7Zm-8.63-5.62c-1.39,2.07-1.28,4.26.51,5.46s3.87.38,5.25-1.66,1.37-4.2-.47-5.44S271.73,124,270.36,126.09Z"/><path class="cls-3" d="M285.67,129.51a31.25,31.25,0,0,1,3.34,2.71,8,8,0,0,1,2.72,3.85,3.08,3.08,0,0,1-.82,2.87,3.42,3.42,0,0,1-3.95.59l0,0a3.22,3.22,0,0,1-.18,3,35.64,35.64,0,0,0-1.58,3.42l-2.43-2.23a15.68,15.68,0,0,1,1.28-2.83c.78-1.45.61-2.17-.36-3.08l-.7-.64-3.36,3.67-2.35-2.16Zm-1.33,6.18.94.86c1.18,1.09,2.37,1.2,3.11.38s.53-1.89-.56-2.89a7.11,7.11,0,0,0-1.14-.92Z"/><path class="cls-3" d="M294.57,156.38a17.69,17.69,0,0,1-3.56-3.24,8.67,8.67,0,0,1-2.35-5.56A6,6,0,0,1,291,143.1c3.28-2.64,7.32-1.49,10.27,2.13a11.4,11.4,0,0,1,2,3.44l-2.22.94a8.26,8.26,0,0,0-1.66-2.9c-1.7-2.08-4-2.83-6.16-1.09s-2,4.07-.37,6.11a5.5,5.5,0,0,0,1.12,1.11l2.07-1.68-1.39-1.71,1.73-1.41,3.35,4.12Z"/><path class="cls-3" d="M151.87,297.95a10,10,0,0,0,2.8,2.95c1.36.92,2.42.91,2.94.14s.15-1.56-1.1-3.11c-1.71-2.16-2.43-4.21-1.28-5.9,1.34-2,4.25-2.21,7.32-.14a10.27,10.27,0,0,1,2.95,2.85l-2.09,1.66a8.16,8.16,0,0,0-2.35-2.39c-1.28-.87-2.27-.75-2.67-.17-.5.74,0,1.56,1.32,3.29,1.8,2.33,2.15,4.12,1,5.76-1.32,2-4.12,2.48-7.71,0a11.41,11.41,0,0,1-3.23-3.24Z"/><path class="cls-3" d="M172,297.67l-6.62,12.41-3.14-1.68L168.84,296Z"/><path class="cls-3" d="M169.93,312.48,175,299.36l3.9,1.5,1.22,6a42.52,42.52,0,0,1,.68,5.43l0,0a51.5,51.5,0,0,1,1.85-5.59l1.47-3.81,3.07,1.18-5.05,13.12-3.5-1.35-1.21-6.28a46,46,0,0,1-.78-5.62l-.09,0c-.57,1.79-1.23,3.66-2.06,5.8l-1.52,4Z"/><path class="cls-3" d="M198.83,320.68a11.67,11.67,0,0,1-4.08-.24c-5.35-1.13-7.47-4.69-6.65-8.61,1-4.69,5.3-6.49,10-5.5a9.9,9.9,0,0,1,3.68,1.42L200.52,310a8.37,8.37,0,0,0-2.83-1.13c-2.75-.58-5.23.45-5.87,3.51-.58,2.75.89,4.88,4,5.53a9.45,9.45,0,0,0,3,.17Z"/><path class="cls-3" d="M213.09,316.27l-5.81-.39-.23,3.33,6.49.44-.17,2.6-10-.68.95-14,9.72.66-.17,2.6-6.16-.42-.2,2.92,5.81.39Z"/><path class="cls-3" d="M226.75,310.79h0L224,312.36l-.87-2.29,3.83-2.14,2.91-.35L231.47,321l-3.42.41Z"/><path class="cls-3" d="M239,317.41a12.65,12.65,0,0,0,1.5-.4,6.5,6.5,0,0,0,2.69-1.57,4.1,4.1,0,0,0,1.22-2.93h-.05a4.39,4.39,0,0,1-2.72,1.73c-2.5.66-5-.32-5.67-2.88s1.07-5.33,4.31-6.19c3.79-1,6.27,1.11,7.08,4.18a7.69,7.69,0,0,1-1,6.73,9.76,9.76,0,0,1-5.17,3.31,14,14,0,0,1-1.56.41Zm.34-7.15a2,2,0,0,0,2.64,1.55,2.34,2.34,0,0,0,1.71-1.36,1.52,1.52,0,0,0,0-.83c-.35-1.4-1.3-2.61-2.91-2.19A2.14,2.14,0,0,0,239.38,310.26Z"/><path class="cls-3" d="M252.77,308.32a3.35,3.35,0,0,1-3.19-1.9c-.89-2.12.67-4.42,3.48-5.6,3.29-1.38,5.36-.26,6,1.26a3.3,3.3,0,0,1-.9,3.62l0,.06a3.66,3.66,0,0,1,3.9,2c1,2.27-.54,4.71-3.81,6.08-3.57,1.5-6,.4-6.68-1.3-.63-1.5-.09-2.95,1.2-4.19Zm-.11-3.3c.35.85,1.43,1,2.68.87a1.92,1.92,0,0,0,.77-2.18,1.65,1.65,0,0,0-2.36-.84A1.61,1.61,0,0,0,252.65,305Zm6.16,4.38c-.46-1.1-1.66-1.36-3.07-1.13a2.13,2.13,0,0,0-.93,2.58,2,2,0,0,0,2.73.92A1.85,1.85,0,0,0,258.82,309.4Z"/><path class="cls-3" d="M266.87,307.06a12.27,12.27,0,0,0,1.33-.79,6.52,6.52,0,0,0,2.16-2.25,4.11,4.11,0,0,0,.36-3.15h-.05a4.38,4.38,0,0,1-2.14,2.41c-2.22,1.32-4.88,1.06-6.24-1.22s-.44-5.42,2.45-7.13c3.37-2,6.33-.65,7.95,2.07a7.71,7.71,0,0,1,.9,6.75,9.78,9.78,0,0,1-4.07,4.6,14,14,0,0,1-1.39.83Zm-1.63-7a2,2,0,0,0,3,.76,2.34,2.34,0,0,0,1.27-1.77,1.49,1.49,0,0,0-.27-.78c-.72-1.25-2-2.16-3.4-1.31A2.14,2.14,0,0,0,265.24,300.09Z"/><path class="cls-1" d="M53,166.77c-6.49-2.52-7.69-3-9.09-3.43s-2.3-.4-3.15.89a9.45,9.45,0,0,0-.78,1.62c-.18.47-.37.69-.67.58s-.27-.45,0-1.09c.88-2.26,2.05-4.91,2.52-6.1s1.43-4.07,2.43-6.63c2.07-5.34,4.84-12.48,11.52-15.24a16.38,16.38,0,0,1,12.46.07,18.21,18.21,0,0,1,10.11,9.29c1.25,2.75,2.55,8.37-.51,16.27-.6,1.54-1.41,3.24-2.16,4.81s-1.47,3-1.88,4.09c-.18.47-.55,1.41-.9,2.45s-.73,2.13-1.06,3c-.22.56-.46.8-.76.69s-.28-.3-.08-.82a7.5,7.5,0,0,0,.43-1.6c.16-.92-.7-1.5-1.87-2.15-1.71-.91-5.09-2.22-9-3.75Zm6.77-3.52c4.53,1.76,7.84,3,8.66,3.26,1.08.37,2.83,1,3.43.79,1-.24,2.57-1.56,3.88-4.93,1.69-4.36,2-7.6.74-11-1.29-3.65-4.84-6-9.25-7.72-5.43-2.11-9.81-1.2-12.27,0-5.29,2.47-7.69,7.14-9,10.48a12.21,12.21,0,0,0-.78,2.89.83.83,0,0,0,.66.84c1.44.61,5.15,2,8.53,3.36Z"/><path class="cls-1" d="M81,128.88c-.13.19-.11.32.06.55L85,135.21a8.85,8.85,0,0,0,1.9,2.17c.68.47,1.4.48,2.21-.69l.39-.56c.32-.45.47-.51.69-.35s.22.49-.07.9c-.84,1.2-2.08,2.74-2.9,3.9-.29.41-1.62,2.56-3,4.51-.34.49-.57.66-.87.45s-.2-.36,0-.66a14,14,0,0,0,.74-1.22c1-1.88.21-3.49-1.14-5.56L66,112.17c-.77-1.21-1-1.73-.77-2.1s.73-.33,1.86-.1c2.7.54,22.22,5.26,29.61,6.85,4.38.94,5.67.22,6.4-.44a10,10,0,0,0,1.25-1.47c.21-.3.38-.46.64-.28s.14.6-.83,2-2.86,4.09-5,7c-.51.65-.83,1.1-1.09.92s-.2-.36,0-.76a.75.75,0,0,0-.63-.94L87.4,120.31a.44.44,0,0,0-.53.19Zm3.48-9c.13-.19,0-.3-.09-.35l-11.64-3.11c-.18-.07-.39-.16-.47,0s.06.32.18.46l6.82,9.92c.12.14.26.18.37,0Z"/><path class="cls-1" d="M102.75,102.14a9.73,9.73,0,0,0-4.11-2.72c-.74-.3-12.17-3.27-15-3.86a11.19,11.19,0,0,0-4.6-.2,4.66,4.66,0,0,0-1.8.91c-.26.25-.56.41-.78.18s-.06-.52.34-.9c.59-.58,3.16-2.87,4.24-3.92.69-.67,1.94-2.08,3.42-3.51q.49-.48.78-.18c.19.2,0,.45-.37,1.06A.83.83,0,0,0,85,90a4.24,4.24,0,0,0,1.48.74c1.42.54,13.71,4,15.13,4.41-.44-1.11-3.31-12.37-3.84-13.84a6,6,0,0,0-1.2-2.16A1.09,1.09,0,0,0,95.1,79c-.36.22-.72.44-.91.25s-.12-.46.27-.84c1.08-1.05,2.23-2,3.19-2.9.72-.7,2.8-2.91,3.42-3.51.36-.35.66-.51.85-.31s.06.58-.31.94a5,5,0,0,0-1.06,1.8,6.79,6.79,0,0,0-.21,3.33,146,146,0,0,0,3.86,16.56,11,11,0,0,0,2.7,3.77l2.62,2.7c.51.53,1.85,1.91,3.29,3.19,1,.89,2,1.33,3.1.5a19.33,19.33,0,0,0,1.77-1.46c.36-.35.62-.41.78-.25s.06.59-.37,1c-2.07,2-4.24,3.92-5.13,4.78s-2.8,2.91-4,4.09c-.46.45-.79.63-1,.37s-.09-.42.27-.77a7.35,7.35,0,0,0,1-1.25c.53-.77.12-1.78-.74-2.8-1.24-1.48-2.58-2.86-3.09-3.38Z"/><path class="cls-1" d="M126.85,95.89c-.79.14-1,0-1.59-.81-1.4-2.1-2.77-4.49-3.14-5.12s-.51-1.09-.2-1.3.61.09.81.39a9.74,9.74,0,0,0,1.64,1.72c2.72,2.26,5.66,1.8,8,.22,3.43-2.29,3.56-5.73,2.22-7.75-1.24-1.87-3-3.24-7.8-3.61l-2.67-.21c-6.38-.49-9.61-2.19-11.67-5.28-2.79-4.2-1.29-9.55,4-13.08A22.18,22.18,0,0,1,122,58.32c.39-.15.66-.16.84.1.33.5.92,1.7,2.9,4.68.56.84.65,1.22.34,1.42s-.53,0-.84-.43a5.54,5.54,0,0,0-2.67-1.86,5.8,5.8,0,0,0-5.4.9c-2.82,1.88-3.45,4.66-1.92,7,1.17,1.76,2.94,2.51,7.7,2.8l1.6.09c6.93.4,10.32,1.94,12.74,5.56a9.24,9.24,0,0,1,.84,9,13.25,13.25,0,0,1-5,5.6A15.85,15.85,0,0,1,126.85,95.89Z"/><path class="cls-1" d="M156,56.41c-2.2-6.61-2.6-7.83-3.15-9.19s-1.16-2-2.69-1.86a9.39,9.39,0,0,0-1.74.43c-.48.16-.77.16-.87-.15s.17-.49.83-.71c1.17-.39,2.45-.77,3.54-1.13s2.16-.62,2.77-.82c1.39-.46,10-3.34,10.86-3.66a17.92,17.92,0,0,0,1.78-.88A4.39,4.39,0,0,1,168,38c.22-.07.32.09.39.31a29.54,29.54,0,0,0,.59,2.94c.1.45.65,2.39.74,2.94,0,.23,0,.52-.28.62s-.46-.09-.59-.48a4.94,4.94,0,0,0-.78-1.48c-.56-.68-1.17-1.06-3.43-.6-.77.16-5.36,1.59-6.23,1.88-.22.07-.26.23-.16.54l3.66,11c.1.3.2.46.46.38,1-.32,6-2,6.93-2.4s1.63-.78,1.87-1.35.29-.72.51-.8.33,0,.42.25.14,1,.71,3.29c.25.88.69,2.67.8,3s.27.83-.12,1a.36.36,0,0,1-.52-.26,12.15,12.15,0,0,0-.69-1.51c-.51-.8-1.33-1.25-3-.89-.86.19-5.18,1.58-6.22,1.92-.22.07-.2.26-.12.52l1.14,3.44c.49,1.48,1.78,5.49,2.24,6.74,1.08,3,2,3.39,6.43,1.92A11.67,11.67,0,0,0,176.65,69c1-.9,1.18-2,.89-3.87-.07-.51,0-.71.26-.81s.46.23.61.67a35.77,35.77,0,0,1,1,5c.07,1.23-.32,1.36-2,1.91-3.26,1.08-5.68,1.79-7.57,2.37s-3.26.94-4.57,1.37c-.48.16-1.43.48-2.46.87s-2.1.8-3,1.08c-.56.19-.91.16-1-.15s.06-.41.58-.58a7.47,7.47,0,0,0,1.51-.69c.81-.46.71-1.49.47-2.81-.39-1.9-1.53-5.33-2.86-9.33Z"/><path class="cls-1" d="M190.76,62.35c.41,3.55,1.11,4.69,2,4.93a7.28,7.28,0,0,0,2.4.11c.5,0,.79,0,.81.3s-.37.49-1,.55c-3,.26-4.8.29-5.67.37-.41,0-2.54.36-4.92.57-.59.05-1,0-1-.37s.24-.39.7-.43a8.1,8.1,0,0,0,2-.41c1.15-.47,1.22-1.81.91-5.79l-2-27.06c-.08-.91,0-1.56.46-1.61s1,.51,1.81,1.27c.6.54,8.2,7.37,15.45,13.4,3.38,2.83,10.12,8.86,11,9.52l.23,0-2.27-20.46c-.29-2.78-.78-3.61-1.92-4a7.45,7.45,0,0,0-2.44-.06c-.55,0-.74-.07-.77-.35s.47-.46,1.15-.52c2.37-.21,4.58-.27,5.54-.35.5,0,2.23-.34,4.46-.53.59-.05,1.05,0,1.09.32s-.24.43-.79.48a5,5,0,0,0-1.36.26c-1.25.48-1.53,1.47-1.35,4l2,28.85c.09,1-.06,1.43-.47,1.47s-1.09-.41-1.64-.87c-3.12-2.48-9.49-7.95-14.66-12.23-5.41-4.49-11-9.75-11.89-10.54h-.14Z"/><path class="cls-1" d="M231.89,45.74c1.2-6.86,1.42-8.13,1.59-9.59s-.06-2.34-1.49-2.91a9.51,9.51,0,0,0-1.74-.44c-.5-.09-.75-.22-.7-.54s.39-.35,1.06-.23c2.39.42,5.21,1.05,6.48,1.27s4.27.61,7,1.09c5.64,1,13.18,2.31,17.2,8.32a16.37,16.37,0,0,1,2.37,12.24,18.2,18.2,0,0,1-7.13,11.73c-2.45,1.76-7.71,4.14-16.06,2.68-1.63-.28-3.45-.75-5.14-1.18s-3.25-.85-4.38-1c-.5-.09-1.49-.26-2.58-.41s-2.23-.3-3.13-.46c-.59-.1-.88-.29-.82-.61s.24-.33.79-.23a7.49,7.49,0,0,0,1.66.1c.93,0,1.33-1,1.74-2.25.56-1.86,1.18-5.42,1.91-9.58Zm4.77,6c-.84,4.79-1.4,8.27-1.51,9.13-.15,1.14-.38,3-.1,3.52.44,1,2,2.22,5.6,2.84,4.6.81,7.83.44,11-1.43,3.32-2,4.95-5.93,5.76-10.58,1-5.73-.74-9.86-2.36-12-3.46-4.7-8.51-6.14-12-6.76a12.19,12.19,0,0,0-3-.2.83.83,0,0,0-.7.81c-.32,1.53-1,5.46-1.63,9Z"/><path class="cls-1" d="M291.46,72.24c-2.08,3.88-3.7,6.91-4.41,8.71-.51,1.24-.74,2.26.39,3.07a19.47,19.47,0,0,0,1.93,1.24c.52.28.62.49.51.69s-.5.25-1.11-.07c-2.55-1.36-5-2.85-6.08-3.41s-3.66-1.8-5.2-2.62c-.57-.3-.8-.54-.63-.86s.33-.24.78,0a7.49,7.49,0,0,0,1.54.62c.9.27,1.57-.51,2.36-1.6,1.11-1.59,2.73-4.62,4.81-8.5l3.81-7.11c3.29-6.14,3.89-7.27,4.5-8.61s.68-2.24-.5-3.23a9.61,9.61,0,0,0-1.51-1c-.4-.22-.64-.45-.51-.69s.54-.23,1.14.09c1.05.56,2.2,1.23,3.25,1.79s1.94,1.14,2.5,1.44c1.53.82,9.74,5.21,10.69,5.67a8.74,8.74,0,0,0,1.74.73,2.86,2.86,0,0,1,.78.1.37.37,0,0,1,.09.51c-.15.28-.61.66-1.3,1.65-.26.38-1.61,2.72-2,3.16s-.42.5-.71.35-.25-.4-.06-.86a4.5,4.5,0,0,0,.58-1.67c0-.72-.5-1.78-2-2.64l-6.16-3.45c-.24-.13-.43-.07-.67.37l-5.41,10.1c-.13.24-.15.38.09.51l5.19,2.73c.69.37,1.25.67,1.84.93a2.4,2.4,0,0,0,2.13.2c.33-.13.5-.25.74-.12s.18.25,0,.49-.87,1.14-1.67,2.33c-.51.77-1.59,2.58-1.74,2.86s-.41.77-.82.55c-.24-.13-.17-.46,0-.74a5,5,0,0,0,.43-1.38,2.69,2.69,0,0,0-1.28-2.56c-.94-.66-5.23-3-5.91-3.32-.2-.11-.33-.07-.48.21Z"/><path class="cls-1" d="M311.5,86.26c-.18-.14-.31-.13-.55,0l-6,3.54a8.9,8.9,0,0,0-2.29,1.74c-.52.64-.57,1.36.53,2.26l.54.43c.43.35.48.5.3.72s-.5.18-.89-.13c-1.14-.92-2.59-2.27-3.69-3.16-.39-.32-2.44-1.79-4.29-3.29-.46-.37-.62-.62-.39-.9s.37-.17.66.06a14.08,14.08,0,0,0,1.16.82c1.81,1.11,3.47.45,5.62-.76l27-15.17c1.26-.69,1.79-.91,2.15-.62s.28.75,0,1.86c-.73,2.65-6.77,21.8-8.86,29.07-1.24,4.3-.6,5.64,0,6.42a10.1,10.1,0,0,0,1.38,1.35c.29.23.43.41.23.66s-.61.1-1.93-1-3.89-3.14-6.68-5.51c-.61-.55-1-.9-.84-1.15s.37-.17.76.08a.75.75,0,0,0,1-.56l3.25-9.86a.44.44,0,0,0-.16-.54Zm8.71,4.09c.18.14.3.07.35-.07l3.9-11.39c.08-.17.19-.38.08-.46s-.32,0-.47.14l-10.36,6.12c-.15.11-.2.25-.06.37Z"/><path class="cls-1" d="M342,101c5.42-4.38,6.42-5.18,7.5-6.18s1.49-1.8.79-3.17a9.44,9.44,0,0,0-1-1.48c-.32-.39-.42-.66-.17-.87s.52,0,1,.53c1.53,1.89,3.23,4.22,3.84,5,1,1.21,3.27,3.83,4.17,4.94,1.81,2.25,3.53,4.81,3.76,7.8a7.93,7.93,0,0,1-2.92,6.37c-2.64,2.13-6,3-11.79,1.75-1.43,6.4-2.61,11.42-3.12,15.31-.46,3.67.48,5.33.8,6a7.2,7.2,0,0,0,.7,1.08c.23.29.24.52.06.66s-.56,0-.9-.39l-2.74-3.39c-1.61-2-2.15-3-2.4-4.36-.42-2.19.16-4.9,1.29-9.12.81-3,1.91-6.61,2.07-7.5a1,1,0,0,0-.27-.84l-2.43-3.16a.32.32,0,0,0-.52-.05l-.5.4c-3.31,2.68-6.13,5-7.48,6.34-.95.94-1.56,1.79-.84,3a20.71,20.71,0,0,0,1.27,1.86c.23.29.24.51.06.66s-.56,0-.93-.43c-1.67-2.07-3.69-4.79-4.13-5.33s-2.47-2.84-3.62-4.26c-.37-.46-.47-.8-.22-1s.4-.09.75.34a7.52,7.52,0,0,0,1.18,1.17c.72.6,1.65.14,2.8-.55,1.64-1,4.46-3.31,7.74-6Zm.58,6.48c-.39.32-.48.5-.38.84a12.1,12.1,0,0,0,1.83,3c1.15,1.43,1.67,1.77,2.65,2,1.65.44,4.12.14,7-2.22,5.06-4.09,3.82-8.62,2.12-10.72a10,10,0,0,0-1.67-1.77c-.27-.19-.47-.15-.76.08Z"/><path class="cls-1" d="M377.91,128.91c.77-.19,1.26-.1,1.4.24s0,.68-.81,1.7l-18.71,21.78,29,1c.82,0,1.25.11,1.41.49s-.15.81-1,1.32l-24.31,15.12c-2.48,1.53-3.52,2.48-3.35,3.91a9.18,9.18,0,0,0,.71,2.79c.16.38.25.69,0,.8s-.68-.3-.94-.89c-.46-1.05-2.85-6.91-3.46-8.64-.34-1-.32-1.31-.07-1.42s.41,0,.66.26.79.1,1.9-.58l17.4-10.57-.07-.17-23.07-.86c-2.4-.11-2.86-.15-3-.53s.49-1.16,1.46-2.38c1.49-1.85,6.48-8,7.44-9,.72-.76,4.92-5.59,7.43-8.43l-.07-.17-17.68,5.09a18,18,0,0,0-2,.73,1.49,1.49,0,0,0-.8,1.85,8.84,8.84,0,0,0,.56,1.86c.15.34.19.67,0,.76-.38.16-.63-.18-.9-.81-.77-1.77-1.46-3.71-1.79-4.47s-1.35-2.76-1.94-4.11c-.18-.42-.24-.79.13-1,.21-.09.4.12.59.54a5.93,5.93,0,0,0,.67,1.21c.76,1.07,2.55.69,4.07.28Z"/><path class="cls-1" d="M79,303.92a.27.27,0,0,0,.4.08l.81-.47c5.88-3.37,7-4,8.16-4.78s1.71-1.5,1.25-2.93a9.28,9.28,0,0,0-.75-1.58c-.24-.43-.3-.7,0-.86s.5.07.81.62c1.2,2.09,2.48,4.59,3.08,5.64s2,3.3,2.91,4.8c.31.54.39.86.12,1s-.48,0-.75-.5a7.89,7.89,0,0,0-.76-1.06c-.79-.93-1.63-.87-3-.17S88.9,305,83,308.36l-6.81,3.91c-3.56,2-6.62,3.8-8.17,4.95-1,.74-1.73,1.46-1.22,2.71a18.61,18.61,0,0,0,1,2.06c.24.43.24.69,0,.8s-.56-.09-.83-.55c-1.44-2.52-2.72-5-3.35-6.1-.51-.89-2-3.26-2.89-4.78-.31-.54-.35-.88-.08-1s.4,0,.66.44a7.42,7.42,0,0,0,1,1.3c.6.68,1.56.39,2.77-.1,1.74-.74,4.79-2.49,8.35-4.54l3.41-2a.26.26,0,0,0,.1-.37l-8.48-14.78a.24.24,0,0,0-.37-.1l-3.41,2c-3.56,2-6.62,3.8-8.17,4.94-1,.74-1.73,1.46-1.22,2.71a18.74,18.74,0,0,0,1,2.06c.24.43.24.69,0,.8s-.56-.09-.83-.55c-1.44-2.52-2.72-5-3.35-6.1-.51-.89-2-3.26-2.91-4.81-.29-.5-.33-.84-.06-1s.4,0,.66.44a7.27,7.27,0,0,0,1,1.3c.6.69,1.56.39,2.77-.1,1.74-.74,4.79-2.49,8.35-4.54l6.81-3.91c5.88-3.37,7-4,8.16-4.78s1.71-1.5,1.25-2.93a9.22,9.22,0,0,0-.75-1.58c-.24-.43-.3-.7,0-.86s.5.07.81.61c1.2,2.09,2.48,4.59,3.08,5.64s2,3.3,2.91,4.81c.31.54.39.86.12,1s-.48,0-.75-.5a8,8,0,0,0-.76-1.05c-.79-.93-1.63-.87-3-.17s-2.37,1.25-8.25,4.63l-.81.46a.27.27,0,0,0-.14.39Z"/><path class="cls-1" d="M85.72,319.15c5.42-5.37,16-8.72,25.38.79,7.81,7.89,8.08,17.36.82,24.54s-18,7.79-26-.25C76.94,335.13,80.11,324.71,85.72,319.15Zm20.64,22.05c7.1-7,7.46-15.48,2.31-20.68-3.61-3.64-9.75-5.79-17.64,2-6.59,6.53-8.21,15.35-2.19,21.43C91,346.21,97.21,350.27,106.36,341.21Z"/><path class="cls-1" d="M122.33,347.57c3.61-5.74,4.27-6.8,5-8.06s.81-2.12-.27-3.17a9.19,9.19,0,0,0-1.4-1c-.42-.26-.6-.48-.43-.74s.48-.17,1,.19c2,1.26,4.31,2.87,5.1,3.36,1.28.81,4.23,2.5,5.4,3.23,2.38,1.49,4.77,3.31,5.93,6a7.73,7.73,0,0,1-.68,6.79c-1.76,2.79-4.54,4.63-10.3,5.33.7,6.34,1.2,11.34,2,15.08.74,3.52,2.12,4.76,2.62,5.23a6.92,6.92,0,0,0,1,.78c.3.19.38.4.26.59s-.5.21-1-.07L133,378.79c-2.12-1.33-2.94-2.11-3.59-3.26-1.08-1.89-1.4-4.57-1.69-8.8-.21-3-.33-6.69-.46-7.56a.93.93,0,0,0-.51-.69l-3.24-2.14a.31.31,0,0,0-.49.11l-.33.53c-2.21,3.51-4.08,6.5-4.89,8.2-.58,1.17-.87,2.14.17,3a20.49,20.49,0,0,0,1.76,1.31c.3.19.38.4.26.59s-.5.21-1-.1c-2.19-1.38-4.92-3.25-5.48-3.6-.72-.45-3.17-1.83-4.68-2.78-.49-.31-.68-.59-.52-.85s.34-.21.79.08a7.33,7.33,0,0,0,1.46.7c.85.32,1.56-.39,2.4-1.39,1.19-1.47,3.06-4.45,5.24-7.93Zm2.58,5.79c-.26.41-.28.61-.09.89a11.77,11.77,0,0,0,2.63,2.18c1.51.95,2.1,1.11,3.08,1,1.66-.12,3.84-1.17,5.79-4.27,3.37-5.36.79-9.14-1.44-10.54a9.68,9.68,0,0,0-2.1-1.11c-.31-.09-.48,0-.67.31Z"/><path class="cls-1" d="M141.6,381.78c-.55-.55-.59-.81-.23-1.72.91-2.28,2.06-4.7,2.37-5.35s.59-1,.93-.88.27.54.13.87a9.4,9.4,0,0,0-.47,2.26c-.31,3.43,1.69,5.52,4.26,6.54,3.73,1.48,6.56-.32,7.43-2.52.81-2,.94-4.18-1.42-8.25l-1.31-2.25c-3.14-5.38-3.56-8.9-2.23-12.26,1.81-4.56,6.93-6.32,12.69-4a21.64,21.64,0,0,1,5.23,2.9c.34.23.5.44.38.73-.21.54-.86,1.68-2.14,4.91-.36.91-.62,1.2-1,1.06s-.32-.41-.12-.91a5.4,5.4,0,0,0,0-3.16,5.65,5.65,0,0,0-3.71-3.83c-3.07-1.22-5.64-.18-6.63,2.31-.76,1.91-.38,3.73,2,7.71l.81,1.33c3.52,5.77,4.16,9.33,2.6,13.27a9,9,0,0,1-6.76,5.66,12.89,12.89,0,0,1-7.27-.92A15.44,15.44,0,0,1,141.6,381.78Z"/><path class="cls-1" d="M176.18,372.46c1.4-6.63,1.66-7.86,1.86-9.27s0-2.27-1.35-2.88a9.1,9.1,0,0,0-1.67-.49c-.48-.1-.72-.24-.66-.55s.39-.33,1-.19c1.18.25,2.44.56,3.53.79s2.12.54,2.73.67c1.4.29,10.08,2.13,10.92,2.26a18.13,18.13,0,0,0,1.93.13,4.25,4.25,0,0,1,.74,0c.22,0,.22.23.18.45a28.25,28.25,0,0,0-.95,2.76c-.14.43-.63,2.33-.83,2.83-.09.21-.23.45-.54.39s-.35-.3-.26-.69a4.81,4.81,0,0,0,.07-1.63c-.14-.85-.47-1.47-2.59-2.19-.72-.24-5.29-1.3-6.16-1.48-.22,0-.33.07-.4.37l-2.33,11c-.06.31-.06.49.21.54,1,.2,6,1.26,7,1.39a3.12,3.12,0,0,0,2.23-.21c.38-.29.6-.46.82-.42s.29.15.23.41-.38.93-1,3.11c-.23.87-.73,2.58-.79,2.89s-.17.83-.57.75a.35.35,0,0,1-.31-.48,11.91,11.91,0,0,0,.16-1.61c0-.92-.51-1.7-2.09-2.22-.81-.26-5.12-1.22-6.17-1.44-.22,0-.3.12-.35.38l-.73,3.45c-.31,1.48-1.2,5.49-1.43,6.77-.55,3,0,3.83,4.47,4.77a11.28,11.28,0,0,0,4.21.34c1.25-.29,2-1.09,2.65-2.81.19-.46.31-.62.62-.55s.28.42.18.86a34.84,34.84,0,0,1-1.59,4.72c-.54,1.07-.94,1-2.6.64-3.27-.69-5.66-1.29-7.52-1.72s-3.2-.81-4.51-1.09c-.48-.1-1.44-.3-2.5-.48s-2.16-.37-3-.55c-.57-.12-.84-.31-.78-.62s.25-.31.77-.2a7.15,7.15,0,0,0,1.61.16c.91,0,1.33-.9,1.77-2.13.61-1.79,1.33-5.23,2.18-9.25Z"/><path class="cls-1" d="M218.05,377.61c-.46-6.76-.55-8-.73-9.43s-.6-2.2-2.09-2.41a9.14,9.14,0,0,0-1.74,0c-.49,0-.76,0-.78-.35s.28-.42,1-.47c2.36-.16,5.17-.22,6.11-.28,1.51-.1,4.89-.47,6.27-.56,2.8-.19,5.8-.13,8.32,1.35a7.73,7.73,0,0,1,3.44,5.89c.22,3.29-.95,6.41-5.19,10.37,4.3,4.71,7.64,8.46,10.45,11,2.67,2.41,4.51,2.6,5.19,2.69a7.21,7.21,0,0,0,1.25,0c.36,0,.54.1.56.32s-.28.47-.81.5l-4.23.29c-2.49.17-3.62,0-4.82-.52-2-.89-3.82-2.87-6.54-6.12-1.95-2.33-4.2-5.21-4.82-5.84a.93.93,0,0,0-.82-.26l-3.88.18c-.22,0-.35.11-.33.38l0,.62c.28,4.14.52,7.65.87,9.51.22,1.28.56,2.24,1.9,2.33a20.45,20.45,0,0,0,2.19,0c.36,0,.54.1.56.32s-.28.47-.86.51c-2.58.18-5.88.27-6.55.31-.85.06-3.64.38-5.42.5-.58,0-.9-.07-.92-.38s.15-.37.69-.4a7.31,7.31,0,0,0,1.59-.29c.88-.24,1-1.23,1.12-2.53.09-1.89-.14-5.4-.42-9.49Zm5.49,3.16c0,.49.13.66.45.78a11.81,11.81,0,0,0,3.41.21c1.78-.12,2.35-.34,3.11-1,1.27-1.07,2.42-3.21,2.17-6.85-.43-6.32-4.74-7.86-7.36-7.68a9.79,9.79,0,0,0-2.35.34c-.3.11-.38.29-.36.65Z"/><path class="cls-1" d="M251.76,373.62c-1.75-6.55-2.07-7.76-2.53-9.11s-1-2-2.51-2a9.11,9.11,0,0,0-1.71.32c-.47.13-.76.11-.84-.19s.2-.47.84-.64c1.16-.31,2.42-.6,3.5-.89s2.13-.48,2.74-.64c1.38-.37,10-2.66,10.76-2.92a17.93,17.93,0,0,0,1.78-.75,4.2,4.2,0,0,1,.64-.36c.22-.06.3.1.36.32a28.48,28.48,0,0,0,.4,2.89c.07.44.49,2.36.54,2.9,0,.23,0,.51-.3.59s-.45-.11-.55-.5a4.78,4.78,0,0,0-.67-1.48c-.51-.69-1.08-1.1-3.3-.78-.76.11-5.3,1.23-6.17,1.46-.21.06-.27.21-.19.51l2.91,10.9c.08.3.17.46.43.39.95-.25,5.9-1.58,6.87-1.93s1.62-.66,1.9-1.2.32-.69.54-.74.32,0,.39.26.08,1,.5,3.24c.19.87.52,2.63.6,2.93s.22.82-.17.92a.35.35,0,0,1-.49-.29,11.73,11.73,0,0,0-.59-1.5c-.45-.8-1.22-1.29-2.86-1-.84.13-5.12,1.23-6.15,1.51-.22.06-.21.24-.14.5l.91,3.4c.39,1.46,1.41,5.44,1.78,6.68.88,3,1.74,3.41,6.14,2.24a11.31,11.31,0,0,0,3.91-1.6c1-.82,1.26-1.86,1.09-3.71,0-.5,0-.69.3-.77s.44.25.55.68a35.1,35.1,0,0,1,.72,4.93c0,1.2-.39,1.3-2,1.74-3.23.86-5.62,1.41-7.49,1.86s-3.22.72-4.52,1.07c-.47.13-1.42.38-2.44.7s-2.09.65-3,.88c-.56.15-.9.1-1-.2s.08-.39.6-.53a7.24,7.24,0,0,0,1.5-.59c.82-.4.78-1.41.62-2.71-.27-1.87-1.18-5.27-2.24-9.23Z"/><path class="cls-1" d="M285.15,384.36c-.78,0-1-.13-1.41-1-1-2.23-2-4.73-2.24-5.4s-.32-1.13,0-1.28.57.18.72.5a9.42,9.42,0,0,0,1.32,1.9c2.27,2.59,5.17,2.58,7.68,1.42,3.65-1.68,4.29-5,3.3-7.12-.91-2-2.38-3.57-7-4.65l-2.54-.6c-6.06-1.43-8.91-3.56-10.42-6.84-2.05-4.45.2-9.37,5.83-12a21.51,21.51,0,0,1,5.71-1.79c.4-.09.66-.06.79.22.24.53.62,1.78,2.08,4.94.41.89.44,1.27.12,1.42s-.52-.06-.74-.54a5.4,5.4,0,0,0-2.29-2.19,5.65,5.65,0,0,0-5.33.05c-3,1.38-4,4-2.9,6.39.86,1.86,2.44,2.85,7,3.85l1.53.33c6.6,1.43,9.63,3.42,11.4,7.27a9,9,0,0,1-.56,8.8,12.9,12.9,0,0,1-5.68,4.63A15.47,15.47,0,0,1,285.15,384.36Z"/><path class="cls-1" d="M312.55,366.11c-5.79-.56-9.65-3.94-12.18-7.45a16.79,16.79,0,0,1-2.91-13c.88-4.27,3.28-8.19,8.67-12.07a44.21,44.21,0,0,1,5.51-3.42c1.5-.81,2.9-1.32,4.06-2,.42-.25.7-.17.86,0s.41.8,1.25,2.12,2.26,3.21,2.71,4c.36.57.49.91.17,1.14s-.57,0-.93-.54a6.37,6.37,0,0,0-3.81-2.31c-2.11-.41-5.63.65-9,3-3.15,2.27-4.64,4.55-5.19,7.14-.9,4.33.89,8.26,3.42,11.77,6.2,8.61,15.83,8.17,20.68,4.68,3.22-2.32,4.91-4.09,5.16-6.8a7.44,7.44,0,0,0-.49-3.28c-.31-.66-.34-.85,0-1.06s.51,0,.72.31a42.23,42.23,0,0,1,2.67,5.39,1.57,1.57,0,0,1-.19,1.73,25.78,25.78,0,0,1-5.92,5.52C322.85,364.68,317.91,366.59,312.55,366.11Z"/><path class="cls-1" d="M331.21,330.36c-5.17-4.38-6.13-5.19-7.28-6s-2-1.1-3.18-.18a9.21,9.21,0,0,0-1.23,1.24c-.32.38-.56.52-.8.32s-.11-.5.33-1c1.53-1.8,3.45-3.86,4.31-4.88.69-.82,2.4-3,3.44-4.27.43-.51.7-.69.94-.49s.13.46-.15.8a6.75,6.75,0,0,0-.73,1.07c-.61,1.06-.26,1.83.87,2.9s2,1.8,7.16,6.18l4.77,4c4.94,4.18,7.85,4.95,10.62,4.43a8.26,8.26,0,0,0,5-3.08,8.73,8.73,0,0,0,2.14-6.26c-.29-3.46-3.27-6.15-6.77-9.12l-4.25-3.6c-5.18-4.38-6.13-5.19-7.28-6s-2-1.1-3.18-.18a8.62,8.62,0,0,0-1.14,1.14c-.32.38-.56.52-.8.32s-.1-.5.3-1c1.47-1.74,3.39-3.8,3.42-3.83.35-.41,2.06-2.64,3.18-4,.4-.48.67-.66.91-.46s.13.46-.21.87a6.76,6.76,0,0,0-.73,1.07c-.61,1.06-.26,1.83.88,2.9s2,1.8,7.16,6.18l3.64,3.08c3.78,3.2,7.48,7,7.51,11.91a13.31,13.31,0,0,1-3.54,9.16c-1.53,1.8-4.4,5-8.75,5.57-3,.41-6.65-.43-11.59-4.6Z"/><path class="cls-1" d="M355.57,298.43c-6-3.23-7.06-3.83-8.36-4.43s-2.17-.67-3.15.47a9.09,9.09,0,0,0-.95,1.46c-.23.43-.44.63-.71.48s-.2-.47.11-1.05c.57-1.06,1.23-2.18,1.76-3.16s1.12-1.88,1.42-2.43c.68-1.25,4.91-9.06,5.28-9.82a18.1,18.1,0,0,0,.68-1.81,4.28,4.28,0,0,1,.18-.71c.11-.2.29-.15.48,0a28.47,28.47,0,0,0,2.38,1.7c.37.25,2.05,1.27,2.48,1.6.17.15.37.35.22.63s-.39.25-.74.05a4.77,4.77,0,0,0-1.54-.53c-.85-.11-1.54,0-2.84,1.86-.44.63-2.75,4.7-3.17,5.48-.11.2,0,.34.24.49l9.92,5.38c.27.15.45.2.58,0,.47-.86,2.91-5.37,3.32-6.32a3.11,3.11,0,0,0,.43-2.2c-.17-.45-.28-.71-.17-.9s.23-.23.46-.1.78.62,2.69,1.87c.76.46,2.27,1.43,2.54,1.58s.75.4.55.76a.35.35,0,0,1-.55.16,11.54,11.54,0,0,0-1.5-.61c-.89-.23-1.78,0-2.72,1.37-.48.7-2.63,4.56-3.14,5.51-.11.2,0,.32.27.45l3.1,1.68c1.33.72,4.92,2.72,6.08,3.29,2.75,1.39,3.68,1.08,5.84-2.92a11.32,11.32,0,0,0,1.53-3.94c.08-1.28-.49-2.19-1.95-3.34-.39-.31-.5-.48-.35-.75s.48-.14.88.07a34.93,34.93,0,0,1,4.08,2.87c.87.83.68,1.18-.13,2.67-1.59,2.94-2.84,5.06-3.8,6.72s-1.69,2.84-2.33,4c-.23.43-.7,1.29-1.17,2.26s-1,2-1.39,2.75c-.28.51-.54.72-.82.57s-.23-.33,0-.8a7.23,7.23,0,0,0,.61-1.5c.27-.87-.49-1.53-1.54-2.31-1.54-1.09-4.64-2.77-8.25-4.72Z"/></g></svg>